{"asset":{"generator":"glTF-Transform v2.4.6","version":"2.0"},"accessors":[{"type":"VEC3","componentType":5126,"count":3593,"max":[3.2834227085113525,6.799839019775391,3.350343942642212],"min":[-3.283419132232666,-9.131092071533203,-0.5701470375061035],"bufferView":0,"byteOffset":0},{"type":"VEC3","componentType":5126,"count":3593,"bufferView":0,"byteOffset":12},{"type":"VEC4","componentType":5126,"count":3593,"bufferView":0,"byteOffset":24},{"type":"VEC2","componentType":5126,"count":3593,"bufferView":0,"byteOffset":40},{"type":"VEC3","componentType":5126,"count":767,"max":[0.9291550517082214,3.4727602005004883,0.8221232891082764],"min":[-0.9291592836380005,-0.4080864489078522,-1.0983819961547852],"bufferView":1,"byteOffset":0},{"type":"VEC3","componentType":5126,"count":767,"bufferView":1,"byteOffset":12},{"type":"VEC4","componentType":5126,"count":767,"bufferView":1,"byteOffset":24},{"type":"VEC3","componentType":5126,"count":362,"max":[2.069242000579834,1.0145747661590576,1.3802838325500488],"min":[-0.4013826847076416,-1.0305994749069214,-1.3897093534469604],"bufferView":2,"byteOffset":0},{"type":"VEC3","componentType":5126,"count":362,"bufferView":2,"byteOffset":12},{"type":"VEC4","componentType":5126,"count":362,"bufferView":2,"byteOffset":24},{"type":"VEC2","componentType":5126,"count":362,"bufferView":2,"byteOffset":40},{"type":"VEC3","componentType":5126,"count":1014,"max":[1.5657525062561035,2.1412060260772705,1.4123671054840088],"min":[-3.952156077957625e-7,-1.855437994003296,-1.3564554452896118],"bufferView":3,"byteOffset":0},{"type":"VEC3","componentType":5126,"count":1014,"bufferView":3,"byteOffset":12},{"type":"VEC4","componentType":5126,"count":1014,"bufferView":3,"byteOffset":24},{"type":"VEC3","componentType":5126,"count":355,"max":[7.375785827636719,0.49981120228767395,0.26671499013900757],"min":[-0.570469856262207,-0.7989316582679749,-0.2667107880115509],"bufferView":4,"byteOffset":0},{"type":"VEC3","componentType":5126,"count":355,"bufferView":4,"byteOffset":12},{"type":"VEC4","componentType":5126,"count":355,"bufferView":4,"byteOffset":24},{"type":"VEC2","componentType":5126,"count":355,"bufferView":4,"byteOffset":40},{"type":"SCALAR","componentType":5123,"count":10728,"bufferView":5,"byteOffset":0},{"type":"SCALAR","componentType":5123,"count":696,"bufferView":5,"byteOffset":21456},{"type":"SCALAR","componentType":5123,"count":744,"bufferView":5,"byteOffset":22848},{"type":"SCALAR","componentType":5123,"count":162,"bufferView":5,"byteOffset":24336},{"type":"SCALAR","componentType":5123,"count":36,"bufferView":5,"byteOffset":24660},{"type":"SCALAR","componentType":5123,"count":2100,"bufferView":5,"byteOffset":24732},{"type":"SCALAR","componentType":5123,"count":468,"bufferView":5,"byteOffset":28932},{"type":"SCALAR","componentType":5123,"count":228,"bufferView":5,"byteOffset":29868},{"type":"SCALAR","componentType":5121,"count":204,"bufferView":5,"byteOffset":30324},{"type":"SCALAR","componentType":5121,"count":288,"bufferView":5,"byteOffset":30528},{"type":"SCALAR","componentType":5123,"count":216,"bufferView":5,"byteOffset":30816},{"type":"SCALAR","componentType":5123,"count":690,"bufferView":5,"byteOffset":31248},{"type":"SCALAR","componentType":5123,"count":1014,"bufferView":5,"byteOffset":32628},{"type":"SCALAR","componentType":5123,"count":216,"bufferView":5,"byteOffset":34656},{"type":"SCALAR","componentType":5123,"count":30,"bufferView":5,"byteOffset":35088},{"type":"SCALAR","componentType":5123,"count":66,"bufferView":5,"byteOffset":35148},{"type":"SCALAR","componentType":5121,"count":984,"bufferView":5,"byteOffset":35280},{"type":"SCALAR","componentType":5121,"count":96,"bufferView":5,"byteOffset":36264},{"type":"SCALAR","componentType":5123,"count":72,"bufferView":5,"byteOffset":36360},{"type":"SCALAR","componentType":5123,"count":168,"bufferView":5,"byteOffset":36504}],"bufferViews":[{"buffer":0,"byteOffset":0,"byteLength":172464,"byteStride":48,"target":34962},{"buffer":0,"byteOffset":172464,"byteLength":30680,"byteStride":40,"target":34962},{"buffer":0,"byteOffset":203144,"byteLength":17376,"byteStride":48,"target":34962},{"buffer":0,"byteOffset":220520,"byteLength":40560,"byteStride":40,"target":34962},{"buffer":0,"byteOffset":261080,"byteLength":17040,"byteStride":48,"target":34962},{"buffer":0,"byteOffset":278120,"byteLength":36840,"target":34963}],"samplers":[{"minFilter":9985,"wrapS":10497,"wrapT":10497}],"textures":[{"source":0,"sampler":0},{"source":1,"sampler":0},{"source":2,"sampler":0}],"images":[{"mimeType":"image/jpeg","uri":"baseColor_1.jpg"},{"mimeType":"image/jpeg","uri":"baseColor_2.jpg"},{"mimeType":"image/jpeg","uri":"baseColor_3.jpg"}],"buffers":[{"uri":"ship213.bin","byteLength":314960}],"materials":[{"name":"ShipPrimary (Instance)","pbrMetallicRoughness":{"baseColorFactor":[0.0137020722,0.118663743,0.4072403,1],"roughnessFactor":0.5,"metallicFactor":0,"baseColorTexture":{"index":0,"extensions":{"KHR_texture_transform":{}}}}},{"name":"ShipSecondary (Instance)","pbrMetallicRoughness":{"baseColorFactor":[0.6725351,0.7174999,0.725425839,1],"roughnessFactor":0.5,"metallicFactor":0,"baseColorTexture":{"index":0,"extensions":{"KHR_texture_transform":{}}}}},{"name":"ShipGrey (Instance)","pbrMetallicRoughness":{"baseColorFactor":[0.0419399254,0.0419399254,0.0419399254,1],"roughnessFactor":0.5,"metallicFactor":0,"baseColorTexture":{"index":0,"extensions":{"KHR_texture_transform":{}}}}},{"name":"Black (Instance)","pbrMetallicRoughness":{"baseColorFactor":[0.007850566,0.007850566,0.007850566,1],"roughnessFactor":0.5,"metallicFactor":0}},{"name":"EngineGlow (Instance)","pbrMetallicRoughness":{"baseColorFactor":[0,0.45662865,1,1],"roughnessFactor":0.5,"metallicFactor":0},"emissiveFactor":[0,0.177283749,1],"extensions":{"KHR_materials_emissive_strength":{"emissiveStrength":7.377213}}},{"name":"ShipPrimary (Instance)","pbrMetallicRoughness":{"baseColorFactor":[0.0137020722,0.118663743,0.4072403,1],"roughnessFactor":0.5,"metallicFactor":0}},{"name":"Black (Instance)","pbrMetallicRoughness":{"baseColorFactor":[0.007850566,0.007850566,0.007850566,1],"roughnessFactor":0.5,"metallicFactor":0}},{"name":"ShipGlass (Instance)","pbrMetallicRoughness":{"baseColorFactor":[0.5583405,0.50327456,0.00030352865,1],"roughnessFactor":0.5,"metallicFactor":0}},{"name":"Black (Instance)","pbrMetallicRoughness":{"baseColorFactor":[0.007850566,0.007850566,0.007850566,1],"roughnessFactor":0.5,"metallicFactor":0}},{"name":"ShipSecondary (Instance)","pbrMetallicRoughness":{"baseColorFactor":[0.6725351,0.7174999,0.725425839,1],"roughnessFactor":0.5,"metallicFactor":0,"baseColorTexture":{"index":1,"extensions":{"KHR_texture_transform":{}}}}},{"name":"ShipPrimary (Instance)","pbrMetallicRoughness":{"baseColorFactor":[0.0137020722,0.118663743,0.4072403,1],"roughnessFactor":0.5,"metallicFactor":0,"baseColorTexture":{"index":1,"extensions":{"KHR_texture_transform":{}}}}},{"name":"ShipPrimary (Instance)","pbrMetallicRoughness":{"baseColorFactor":[0.0137020722,0.118663743,0.4072403,1],"roughnessFactor":0.5,"metallicFactor":0}},{"name":"ShipGrey (Instance)","pbrMetallicRoughness":{"baseColorFactor":[0.0419399254,0.0419399254,0.0419399254,1],"roughnessFactor":0.5,"metallicFactor":0}},{"name":"ShipSecondary (Instance)","pbrMetallicRoughness":{"baseColorFactor":[0.6725351,0.7174999,0.725425839,1],"roughnessFactor":0.5,"metallicFactor":0}},{"name":"Accent (Instance)","pbrMetallicRoughness":{"baseColorFactor":[0.3691636,0.183885992,0.106596224,1],"roughnessFactor":0.5,"metallicFactor":0}},{"name":"EngineGlow (Instance)","pbrMetallicRoughness":{"baseColorFactor":[0,0.45662865,1,1],"roughnessFactor":0.5,"metallicFactor":0},"emissiveFactor":[0,0.177283749,1],"extensions":{"KHR_materials_emissive_strength":{"emissiveStrength":7.377213}}},{"name":"ShipPrimary (Instance)","pbrMetallicRoughness":{"baseColorFactor":[0.0137020722,0.118663743,0.4072403,1],"roughnessFactor":0.5,"metallicFactor":0}},{"name":"ShipGrey (Instance)","pbrMetallicRoughness":{"baseColorFactor":[0.0419399254,0.0419399254,0.0419399254,1],"roughnessFactor":0.5,"metallicFactor":0}},{"name":"ShipSecondary (Instance)","pbrMetallicRoughness":{"baseColorFactor":[0.6725351,0.7174999,0.725425839,1],"roughnessFactor":0.5,"metallicFactor":0}},{"name":"Accent (Instance)","pbrMetallicRoughness":{"baseColorFactor":[0.3691636,0.183885992,0.106596224,1],"roughnessFactor":0.5,"metallicFactor":0}},{"name":"EngineGlow (Instance)","pbrMetallicRoughness":{"baseColorFactor":[0,0.45662865,1,1],"roughnessFactor":0.5,"metallicFactor":0},"emissiveFactor":[0,0.177283749,1],"extensions":{"KHR_materials_emissive_strength":{"emissiveStrength":7.377213}}},{"name":"ShipPrimary (Instance)","pbrMetallicRoughness":{"baseColorFactor":[0.0137020722,0.118663743,0.4072403,1],"roughnessFactor":0.5,"metallicFactor":0,"baseColorTexture":{"index":2,"extensions":{"KHR_texture_transform":{}}}}},{"name":"ShipSecondary (Instance)","pbrMetallicRoughness":{"baseColorFactor":[0.6725351,0.7174999,0.725425839,1],"roughnessFactor":0.5,"metallicFactor":0,"baseColorTexture":{"index":2,"extensions":{"KHR_texture_transform":{}}}}},{"name":"Black (Instance)","pbrMetallicRoughness":{"baseColorFactor":[0.007850566,0.007850566,0.007850566,1],"roughnessFactor":0.5,"metallicFactor":0}},{"name":"ShipGrey (Instance)","pbrMetallicRoughness":{"baseColorFactor":[0.0419399254,0.0419399254,0.0419399254,1],"roughnessFactor":0.5,"metallicFactor":0,"baseColorTexture":{"index":2,"extensions":{"KHR_texture_transform":{}}}}},{"name":"ShipPrimary (Instance)","pbrMetallicRoughness":{"baseColorFactor":[0.0137020722,0.118663743,0.4072403,1],"roughnessFactor":0.5,"metallicFactor":0,"baseColorTexture":{"index":2,"extensions":{"KHR_texture_transform":{}}}}},{"name":"ShipSecondary (Instance)","pbrMetallicRoughness":{"baseColorFactor":[0.6725351,0.7174999,0.725425839,1],"roughnessFactor":0.5,"metallicFactor":0,"baseColorTexture":{"index":2,"extensions":{"KHR_texture_transform":{}}}}},{"name":"Black (Instance)","pbrMetallicRoughness":{"baseColorFactor":[0.007850566,0.007850566,0.007850566,1],"roughnessFactor":0.5,"metallicFactor":0}},{"name":"ShipGrey (Instance)","pbrMetallicRoughness":{"baseColorFactor":[0.0419399254,0.0419399254,0.0419399254,1],"roughnessFactor":0.5,"metallicFactor":0,"baseColorTexture":{"index":2,"extensions":{"KHR_texture_transform":{}}}}}],"meshes":[{"name":"ShipPart_2","primitives":[{"attributes":{"POSITION":0,"NORMAL":1,"TANGENT":2,"TEXCOORD_0":3},"mode":4,"material":0,"indices":18},{"attributes":{"POSITION":0,"NORMAL":1,"TANGENT":2,"TEXCOORD_0":3},"mode":4,"material":1,"indices":19},{"attributes":{"POSITION":0,"NORMAL":1,"TANGENT":2,"TEXCOORD_0":3},"mode":4,"material":2,"indices":20},{"attributes":{"POSITION":0,"NORMAL":1,"TANGENT":2,"TEXCOORD_0":3},"mode":4,"material":3,"indices":21},{"attributes":{"POSITION":0,"NORMAL":1,"TANGENT":2,"TEXCOORD_0":3},"mode":4,"material":4,"indices":22}]},{"name":"ShipPart_14","primitives":[{"attributes":{"POSITION":4,"NORMAL":5,"TANGENT":6},"mode":4,"material":5,"indices":23},{"attributes":{"POSITION":4,"NORMAL":5,"TANGENT":6},"mode":4,"material":6,"indices":24},{"attributes":{"POSITION":4,"NORMAL":5,"TANGENT":6},"mode":4,"material":7,"indices":25}]},{"name":"ShipPart_160","primitives":[{"attributes":{"POSITION":7,"NORMAL":8,"TANGENT":9,"TEXCOORD_0":10},"mode":4,"material":8,"indices":26},{"attributes":{"POSITION":7,"NORMAL":8,"TANGENT":9,"TEXCOORD_0":10},"mode":4,"material":9,"indices":27},{"attributes":{"POSITION":7,"NORMAL":8,"TANGENT":9,"TEXCOORD_0":10},"mode":4,"material":10,"indices":28}]},{"name":"ShipPart_206","primitives":[{"attributes":{"POSITION":11,"NORMAL":12,"TANGENT":13},"mode":4,"material":11,"indices":29},{"attributes":{"POSITION":11,"NORMAL":12,"TANGENT":13},"mode":4,"material":12,"indices":30},{"attributes":{"POSITION":11,"NORMAL":12,"TANGENT":13},"mode":4,"material":13,"indices":31},{"attributes":{"POSITION":11,"NORMAL":12,"TANGENT":13},"mode":4,"material":14,"indices":32},{"attributes":{"POSITION":11,"NORMAL":12,"TANGENT":13},"mode":4,"material":15,"indices":33}]},{"name":"ShipPart_365","primitives":[{"attributes":{"POSITION":11,"NORMAL":12,"TANGENT":13},"mode":4,"material":16,"indices":29},{"attributes":{"POSITION":11,"NORMAL":12,"TANGENT":13},"mode":4,"material":17,"indices":30},{"attributes":{"POSITION":11,"NORMAL":12,"TANGENT":13},"mode":4,"material":18,"indices":31},{"attributes":{"POSITION":11,"NORMAL":12,"TANGENT":13},"mode":4,"material":19,"indices":32},{"attributes":{"POSITION":11,"NORMAL":12,"TANGENT":13},"mode":4,"material":20,"indices":33}]},{"name":"ShipPart_576","primitives":[{"attributes":{"POSITION":14,"NORMAL":15,"TANGENT":16,"TEXCOORD_0":17},"mode":4,"material":21,"indices":34},{"attributes":{"POSITION":14,"NORMAL":15,"TANGENT":16,"TEXCOORD_0":17},"mode":4,"material":22,"indices":35},{"attributes":{"POSITION":14,"NORMAL":15,"TANGENT":16,"TEXCOORD_0":17},"mode":4,"material":23,"indices":36},{"attributes":{"POSITION":14,"NORMAL":15,"TANGENT":16,"TEXCOORD_0":17},"mode":4,"material":24,"indices":37}]},{"name":"ShipPart_599","primitives":[{"attributes":{"POSITION":14,"NORMAL":15,"TANGENT":16,"TEXCOORD_0":17},"mode":4,"material":25,"indices":34},{"attributes":{"POSITION":14,"NORMAL":15,"TANGENT":16,"TEXCOORD_0":17},"mode":4,"material":26,"indices":35},{"attributes":{"POSITION":14,"NORMAL":15,"TANGENT":16,"TEXCOORD_0":17},"mode":4,"material":27,"indices":36},{"attributes":{"POSITION":14,"NORMAL":15,"TANGENT":16,"TEXCOORD_0":17},"mode":4,"material":28,"indices":37}]}],"nodes":[{"name":"ShipHolder(Clone)","children":[1]},{"name":"ShipPart_0","translation":[0,-1.5,0.5134907],"children":[2]},{"name":"ShipPart_1","children":[3,4,6,8,15,18,19,20,22]},{"name":"ShipPart_2","rotation":[-0.7071068,0,0,0.7071067],"mesh":0},{"name":"ShipPart_13","translation":[0.006,1.463,5.286],"rotation":[0.148634613,0.0108055882,0.00279189041,0.9888292],"children":[5]},{"name":"ShipPart_14","translation":[-0.0513348877,0.8186506,2.12672],"rotation":[-0.8043084,-0.005666539,-0.00961487,0.5941072],"mesh":1},{"name":"ShipPart_22","translation":[0,2.674,-5.511],"children":[7]},{"name":"ShipPart_160","translation":[0,1.023,0.82],"rotation":[-0.50000006,-0.50000006,0.5,0.5],"mesh":2},{"name":"ShipPart_175","children":[9,12]},{"name":"ShipPart_196","children":[10]},{"name":"ShipPart_197","translation":[4.542,0.699,-2.676],"children":[11]},{"name":"ShipPart_206","translation":[-1.283,0.498,-1.40499985],"rotation":[-0.7071068,0,0,0.7071067],"mesh":3},{"name":"ShipPart_355","scale":[-1,1,1],"children":[13]},{"name":"ShipPart_356","translation":[4.542,0.699,-2.676],"children":[14]},{"name":"ShipPart_365","translation":[-1.283,0.498,-1.40499985],"rotation":[-0.7071068,0,0,0.7071067],"mesh":4},{"name":"ShipPart_565","children":[16]},{"name":"ShipPart_566","translation":[0.51,1.26,-0.94],"scale":[1,-1,1],"children":[17]},{"name":"ShipPart_576","translation":[1.98,1.357,-3.92],"rotation":[-0.5097765,-0.51959914,-0.0743895,-0.681623757],"mesh":5},{"name":"ShipPart_584","translation":[2.472,1.428,-6.6],"rotation":[0,0,-0.7071068,0.7071068]},{"name":"ShipPart_585","translation":[-2.472,1.428,-6.6],"rotation":[0,0,-0.7071068,0.7071068]},{"name":"ShipPart_586","translation":[-7.29999638,3.70000076,15.5299873],"rotation":[-0.0230980236,-0.9704653,0.103435293,-0.2167135],"children":[21]},{"name":"ShipPart_587"},{"name":"ShipPart_588","scale":[-1,1,1],"children":[23]},{"name":"ShipPart_589","translation":[0.51,1.26,-0.94],"scale":[1,-1,1],"children":[24]},{"name":"ShipPart_599","translation":[1.98,1.357,-3.92],"rotation":[-0.5097765,-0.51959914,-0.0743895,-0.681623757],"mesh":6}],"scenes":[{"name":"ship.glb","nodes":[0]}],"scene":0,"extensionsUsed":["KHR_materials_emissive_strength","KHR_texture_transform"]}