{
	"asset":{
		"version":"2.0",
		"generator":"Created using the official Cinema 4D glTF Exporter 1.000x284978"
	},
	"scenes":[{
		"nodes":[0,
		1,
		2]
	}],
	"nodes":[{
		"name":"g_d",
		"translation":[0.0,
		24.767498016357423,
		26.01986312866211],
		"rotation":[0.0,
		0.0,
		0.0,
		-1.0],
		"scale":[1.0,
		1.0,
		1.0],
		"mesh":0
	},
	{
		"name":"g_c",
		"translation":[-1.7763568394002506e-15,
		24.777511596679689,
		-25.91193199157715],
		"rotation":[0.0,
		0.0,
		0.0,
		-1.0],
		"scale":[1.0,
		1.0,
		1.0],
		"mesh":1
	},
	{
		"name":"gbase",
		"translation":[-1.1776089668273926,
		-22.964731216430665,
		0.44859763979911806],
		"rotation":[0.0,
		0.0,
		0.0,
		-1.0],
		"scale":[1.0,
		1.0,
		1.0],
		"mesh":2
	}],
	"meshes":[{
		"name":"g_d",
		"primitives":[{
			"attributes":{
				"POSITION":1,
				"NORMAL":2,
				"TEXCOORD_0":3
			},
			"indices":0,
			"material":0
		}]
	},
	{
		"name":"g_c",
		"primitives":[{
			"attributes":{
				"POSITION":5,
				"NORMAL":6,
				"TEXCOORD_0":7
			},
			"indices":4,
			"material":1
		}]
	},
	{
		"name":"gbase",
		"primitives":[{
			"attributes":{
				"POSITION":9,
				"NORMAL":10,
				"TEXCOORD_0":11
			},
			"indices":8,
			"material":2
		}]
	}],
	"materials":[{
		"pbrMetallicRoughness":{
			"baseColorFactor":[0.16829999999999993,
			0.5791499999999999,
			0.99,
			1.0],
			"metallicFactor":0.0,
			"roughnessFactor":0.32
		},
		"emissiveFactor":[0.0,
		0.0,
		0.0],
		"alphaMode":"OPAQUE",
		"doubleSided":false,
		"name":"c4m_1"
	},
	{
		"pbrMetallicRoughness":{
			"baseColorFactor":[0.16829999999999993,
			0.5791499999999999,
			0.99,
			1.0],
			"metallicFactor":0.0,
			"roughnessFactor":0.5
		},
		"emissiveFactor":[0.0,
		0.0,
		0.0],
		"alphaMode":"OPAQUE",
		"doubleSided":false,
		"name":"c4m_2"
	},
	{
		"pbrMetallicRoughness":{
			"baseColorFactor":[0.0,
			0.0,
			0.0,
			1.0],
			"metallicFactor":0.0,
			"roughnessFactor":0.5
		},
		"emissiveFactor":[0.0,
		0.0,
		0.0],
		"alphaMode":"OPAQUE",
		"doubleSided":false,
		"name":"c4m_3"
	}],
	"accessors":[{
		"bufferView":0,
		"type":"SCALAR",
		"componentType":5123,
		"min":[0],
		"count":1632,
		"byteOffset":0,
		"max":[505]
	},
	{
		"bufferView":1,
		"type":"VEC3",
		"componentType":5126,
		"min":[-17.92734718322754,
		-49.989986419677737,
		-25.0],
		"count":506,
		"byteOffset":0,
		"max":[17.92734718322754,
		49.989986419677737,
		25.0]
	},
	{
		"bufferView":1,
		"type":"VEC3",
		"componentType":5126,
		"min":[-1.0,
		-0.9990482926368713,
		-1.0],
		"count":506,
		"byteOffset":12,
		"max":[1.0,
		0.9990482926368713,
		1.0]
	},
	{
		"bufferView":1,
		"type":"VEC2",
		"componentType":5126,
		"min":[-0.004587267059832811,
		-0.012806238606572152],
		"count":506,
		"byteOffset":24,
		"max":[1.0043870210647584,
		1.0127999782562256]
	},
	{
		"bufferView":2,
		"type":"SCALAR",
		"componentType":5123,
		"min":[0],
		"count":2568,
		"byteOffset":0,
		"max":[836]
	},
	{
		"bufferView":3,
		"type":"VEC3",
		"componentType":5126,
		"min":[-17.92734718322754,
		-49.97997283935547,
		-25.0],
		"count":837,
		"byteOffset":0,
		"max":[17.92734718322754,
		49.97997283935547,
		25.0]
	},
	{
		"bufferView":3,
		"type":"VEC3",
		"componentType":5126,
		"min":[-1.0,
		-0.9990482926368713,
		-1.0],
		"count":837,
		"byteOffset":12,
		"max":[1.0,
		0.9990482926368713,
		1.0]
	},
	{
		"bufferView":3,
		"type":"VEC2",
		"componentType":5126,
		"min":[-0.0043869828805327419,
		-0.012806238606572152],
		"count":837,
		"byteOffset":24,
		"max":[1.0043870210647584,
		1.004587173461914]
	},
	{
		"bufferView":4,
		"type":"SCALAR",
		"componentType":5123,
		"min":[0],
		"count":4470,
		"byteOffset":0,
		"max":[945]
	},
	{
		"bufferView":5,
		"type":"VEC3",
		"componentType":5126,
		"min":[-25.538494110107423,
		-11.6656494140625,
		-56.922733306884769],
		"count":946,
		"byteOffset":0,
		"max":[25.538494110107423,
		11.6656494140625,
		56.922733306884769]
	},
	{
		"bufferView":5,
		"type":"VEC3",
		"componentType":5126,
		"min":[-1.0,
		-1.0,
		-1.0],
		"count":946,
		"byteOffset":12,
		"max":[1.0,
		1.0,
		1.0]
	},
	{
		"bufferView":5,
		"type":"VEC2",
		"componentType":5126,
		"min":[0.0,
		0.0],
		"count":946,
		"byteOffset":24,
		"max":[1.0,
		1.0]
	}],
	"bufferViews":[{
		"buffer":0,
		"byteOffset":0,
		"byteLength":3264,
		"target":34963
	},
	{
		"buffer":0,
		"byteOffset":3264,
		"byteLength":16192,
		"target":34962,
		"byteStride":32
	},
	{
		"buffer":1,
		"byteOffset":0,
		"byteLength":5136,
		"target":34963
	},
	{
		"buffer":1,
		"byteOffset":5136,
		"byteLength":26784,
		"target":34962,
		"byteStride":32
	},
	{
		"buffer":2,
		"byteOffset":0,
		"byteLength":8940,
		"target":34963
	},
	{
		"buffer":2,
		"byteOffset":8940,
		"byteLength":30272,
		"target":34962,
		"byteStride":32
	}],
	"buffers":[{
		"uri":"data:application/octet-stream;base64,",
		"byteLength":19456
	},
	{
		"uri":"data:application/octet-stream;base64,",
		"byteLength":31920
	},
	{
		"uri":"data:application/octet-stream;base64,",
		"byteLength":39212
	}]
}